<svg width="19" height="18" viewBox="0 0 19 18" fill="none" xmlns="http://www.w3.org/2000/svg">
<g clip-path="url(#clip0_52_423)">
<path d="M15.8719 3.45753C15.4829 3.07428 15.021 2.77026 14.5127 2.56284C14.0043 2.35542 13.4595 2.24866 12.9092 2.24866C12.359 2.24866 11.8141 2.35542 11.3058 2.56284C10.7974 2.77026 10.3356 3.07428 9.94656 3.45753L9.13925 4.25253L8.33194 3.45753C7.5462 2.68376 6.48049 2.24906 5.36928 2.24906C4.25807 2.24906 3.19237 2.68376 2.40662 3.45753C1.62087 4.2313 1.17944 5.28075 1.17944 6.37503C1.17944 7.4693 1.62087 8.51876 2.40662 9.29253L3.21392 10.0875L9.13925 15.9225L15.0646 10.0875L15.8719 9.29253C16.2611 8.90946 16.5698 8.45464 16.7804 7.95404C16.991 7.45345 17.0995 6.91689 17.0995 6.37503C17.0995 5.83316 16.991 5.2966 16.7804 4.79601C16.5698 4.29542 16.2611 3.84059 15.8719 3.45753Z" stroke="#333333" stroke-opacity="0.5" stroke-width="2" stroke-linecap="round" stroke-linejoin="round"/>
</g>
<defs>
<clipPath id="clip0_52_423">
<rect width="18.2786" height="18" fill="white"/>
</clipPath>
</defs>
</svg>
