<svg width="70" height="70" viewBox="0 0 70 70" fill="none" xmlns="http://www.w3.org/2000/svg">
<path d="M19.2928 62.1875C19.0325 62.1875 18.7982 62.0833 18.5899 61.875C18.4336 61.7187 18.3555 61.5104 18.3555 61.25V20.0781C18.3555 19.8177 18.4336 19.6094 18.5899 19.4531C18.7982 19.2448 19.0325 19.1406 19.2928 19.1406H25.854C26.1143 19.1406 26.3226 19.2448 26.4788 19.4531C26.6871 19.6094 26.7913 19.8177 26.7913 20.0781V61.25C26.7913 61.5104 26.6871 61.7187 26.4788 61.875C26.3226 62.0833 26.1143 62.1875 25.854 62.1875H19.2928ZM22.6515 10.625C21.1414 10.625 19.8656 10.1302 18.8242 9.14063C17.8348 8.09896 17.3401 6.84896 17.3401 5.39062C17.3401 3.88021 17.8348 2.60417 18.8242 1.5625C19.8656 0.520834 21.1414 0 22.6515 0C24.1616 0 25.4374 0.520834 26.4788 1.5625C27.5203 2.60417 28.041 3.88021 28.041 5.39062C28.041 6.84896 27.5203 8.09896 26.4788 9.14063C25.4374 10.1302 24.1616 10.625 22.6515 10.625Z" fill="#2F80ED"/>
<path d="M52.1131 60C50.0302 60 48.0254 59.5573 46.0988 58.6719C44.1721 57.7865 42.5578 56.5885 41.256 55.0781V68.9844C41.256 69.401 41.2039 69.6615 41.0998 69.7656C40.9957 69.9219 40.7613 70 40.3968 70H33.9138C33.6014 70 33.367 69.9219 33.2108 69.7656C33.0546 69.6615 32.9765 69.401 32.9765 68.9844V16.0156C32.9765 15.1823 33.367 14.7656 34.1481 14.7656H40.1625C40.8915 14.7656 41.256 15.1823 41.256 16.0156V18.8281C42.714 17.3177 44.3543 16.1458 46.1769 15.3125C47.9994 14.4792 49.9781 14.0625 52.1131 14.0625C54.925 14.0625 57.4245 14.6094 59.6115 15.7031C61.8507 16.7448 63.7253 18.2552 65.2354 20.2344C66.7975 22.2135 67.9692 24.6354 68.7503 27.5C69.5834 30.3646 70 33.5937 70 37.1875C70 40.6771 69.5834 43.8281 68.7503 46.6406C67.9171 49.4531 66.7194 51.849 65.1573 53.8281C63.6472 55.8073 61.7726 57.3177 59.5334 58.3594C57.3464 59.4531 54.873 60 52.1131 60ZM51.2539 22.0312C49.9 22.0312 48.6243 22.3698 47.4266 23.0469C46.2289 23.6719 45.1614 24.6354 44.2241 25.9375C43.3389 27.1875 42.6099 28.75 42.0371 30.625C41.5164 32.5 41.256 34.6615 41.256 37.1094C41.256 42.2135 42.1673 45.9896 43.9898 48.4375C45.8124 50.8854 48.2337 52.1094 51.2539 52.1094C54.4824 52.1094 56.9559 50.8073 58.6742 48.2031C60.3926 45.599 61.2518 41.901 61.2518 37.1094C61.2518 32.0573 60.3666 28.2812 58.5961 25.7812C56.8257 23.2812 54.3783 22.0312 51.2539 22.0312Z" fill="#2F80ED"/>
<path d="M19.9333 21.4844V61.2969C19.9333 61.7969 19.6834 62.0469 19.1835 62.0469H13.6221C13.1223 62.0469 12.8723 61.7969 12.8723 61.2969V21.4844H0.749843C0.541553 21.4844 0.354093 21.4219 0.187461 21.2969C0.0624869 21.1302 0 20.9219 0 20.6719V15.6719C0 15.4635 0.0624869 15.2969 0.187461 15.1719C0.354093 15.0052 0.541553 14.9219 0.749843 14.9219H32.1183C32.3266 14.9219 32.4932 15.0052 32.6182 15.1719C32.7848 15.2969 32.8681 15.4635 32.8681 15.6719V20.6719C32.8681 21.2135 32.6182 21.4844 32.1183 21.4844H19.9333Z" fill="#333333"/>
</svg>
