<svg width="22" height="22" viewBox="0 0 22 22" fill="none" xmlns="http://www.w3.org/2000/svg">
<path fill-rule="evenodd" clip-rule="evenodd" d="M10.75 21C16.2728 21 20.75 16.1046 20.75 12.7647C20.75 9.42471 16.2728 4.52942 10.75 4.52942C5.22717 4.52942 0.75 9.42812 0.75 12.7647C0.75 16.1013 5.22717 21 10.75 21Z" fill="#2F88FF" stroke="black" stroke-width="1.5" stroke-linejoin="round"/>
<path d="M10.75 16.2941C12.5909 16.2941 14.0833 14.7139 14.0833 12.7647C14.0833 10.8155 12.5909 9.23529 10.75 9.23529C8.90901 9.23529 7.41663 10.8155 7.41663 12.7647C7.41663 14.7139 8.90901 16.2941 10.75 16.2941Z" fill="#43CCF8" stroke="white" stroke-width="1.5" stroke-linejoin="round"/>
<path d="M4.7854 3.50946L6.22679 5.63899" stroke="black" stroke-width="1.5" stroke-linecap="round"/>
<path d="M17.2083 3.77081L15.7668 5.90034" stroke="black" stroke-width="1.5" stroke-linecap="round"/>
<path d="M10.7549 1V4.52942" stroke="black" stroke-width="1.5" stroke-linecap="round"/>
</svg>
